PathFileType	4	(X/Y/Z)	Walk10.trc
DataRate	CameraRate	NumFrames	NumMarkers	Units	OrigDataRate	OrigDataStartFrame	OrigNumFrames
200.000000	200.000000	8	68	mm	200.000000	567	783
Frame#	Times		LToe		LowerBodyModelVer		LBHD		LWRR		LElbow		RMT1		LACR1		RMT5		RToe		LUA1		RTB2		LWRU		RCAL		LCAR		RTB3		RTB4		RFA1		LMT5		RWRU		RMMAL		C7		LASI		RLFC		LTB2		LPSI		LLFC		LMMAL		RElbowM		LTH3		RASI		RPSI		LHJC		MidPelvis		OPelvis		PELOrigin		RHJC		SACR		XPelvis		YPelvis		ZPelvis		LCAL		RElbow		LFHD		RTH3		RCAR		STRN		RBHD		LMT1		RMFC		RKJC		LLMAL		RWRR		RLMAL		RUA1		RFHD		RBack		LMFC		LKJC		LTH4		RTH1		LTH1		LTH2		LTB1		LTB4		LTB3		RTH4		RTB1		RTH2
			X1	Y1	Z1	X2	Y2	Z2	X3	Y3	Z3	X4	Y4	Z4	X5	Y5	Z5	X6	Y6	Z6	X7	Y7	Z7	X8	Y8	Z8	X9	Y9	Z9	X10	Y10	Z10	X11	Y11	Z11	X12	Y12	Z12	X13	Y13	Z13	X14	Y14	Z14	X15	Y15	Z15	X16	Y16	Z16	X17	Y17	Z17	X18	Y18	Z18	X19	Y19	Z19	X20	Y20	Z20	X21	Y21	Z21	X22	Y22	Z22	X23	Y23	Z23	X24	Y24	Z24	X25	Y25	Z25	X26	Y26	Z26	X27	Y27	Z27	X28	Y28	Z28	X29	Y29	Z29	X30	Y30	Z30	X31	Y31	Z31	X32	Y32	Z32	X33	Y33	Z33	X34	Y34	Z34	X35	Y35	Z35	X36	Y36	Z36	X37	Y37	Z37	X38	Y38	Z38	X39	Y39	Z39	X40	Y40	Z40	X41	Y41	Z41	X42	Y42	Z42	X43	Y43	Z43	X44	Y44	Z44	X45	Y45	Z45	X46	Y46	Z46	X47	Y47	Z47	X48	Y48	Z48	X49	Y49	Z49	X50	Y50	Z50	X51	Y51	Z51	X52	Y52	Z52	X53	Y53	Z53	X54	Y54	Z54	X55	Y55	Z55	X56	Y56	Z56	X57	Y57	Z57	X58	Y58	Z58	X59	Y59	Z59	X60	Y60	Z60	X61	Y61	Z61	X62	Y62	Z62	X63	Y63	Z63	X64	Y64	Z64	X65	Y65	Z65	X66	Y66	Z66	X67	Y67	Z67	X68	Y68	Z68

567	2.835	-193.11	26.1	-98.279	9	2014	4	-100.71	1589.6	-79.708	117.26	828.51	-292.22	-40.679	1061.7	-317.28	309.5	43.536	39.192	-40.568	1400.1	-185.62	266.12	27.201	108.26	352.82	60.202	78.891	-32.635	1200.6	-270.61	148.09	293.52	101.04	187.9	844.59	-271.43	103.57	29.895	11.599	24.909	935.17	-313.19	171.98	207.23	28.139	162.24	295.65	27.847	-125.63	905.47	256.18	-287.75	22.916	-155.83	-117.77	784.6	221.97	182.66	74.371	1.612	-127.36	1454.8	-13.866	-17.702	1017.5	-186.31	73.976	519.72	110.31	-233.02	283.79	-140.79	-204.42	1014.3	-52.937	-173.27	498.28	-151.49	-366.76	86.361	-45.875	-178.17	1073.5	180.64	-139.92	558.62	-162.16	-9.1516	1020.6	122.58	-202.51	1015	15.705	-86.339	917.42	-133.91	-108.45	1016.9	-25.241	-13.427	1019	-31.866	-13.427	1019	-31.866	-80.525	919.58	76.133	-203.46	1014.7	-18.616	66.52	1020.9	-34.098	-15.322	1099	-32.639	-11.213	1019.9	48.099	-458.56	74.043	-82.388	-142.4	1066.1	257.35	75.838	1631.4	-55.049	58.811	562.68	113.15	-51.784	759.09	248.45	-192.77	1198.2	-14.092	-94.814	1582.8	57.02	-247.57	28.701	-75.386	63.695	480.62	-14.537	68.835	500.17	47.884	-389.02	86.334	-129.55	-39.292	807.55	202.28	149.63	63.925	77.143	-59.488	1222.8	220.93	78.511	1629.4	19.8	-13.369	1401	139.45	-200.31	485.15	-26.925	-186.79	491.71	-89.207	-118.29	649.64	-178.73	-5.524	737.64	151.4	-98.515	738.26	-196.4	-59.32	676.08	-212.85	-185.5	361.44	-67.952	-234.73	282.89	-68.401	-282.81	203.84	-71.362	30.106	650.11	135.04	149.8	392.38	31.287	90.003	677.76	101.46
568	2.84	-193.13	25.935	-98.062	9	2014	4	-95.471	1589.9	-78.569	120.4	828.1	-291.25	-36.588	1062	-316.29	310.17	41.664	38.89	-35.073	1400.4	-184.65	266.74	26.053	108.52	353.89	57.737	78.401	-27.87	1200.9	-269.63	151.65	293.4	101.3	191.11	843.93	-270.52	103.84	30.382	11.86	28.456	935.14	-312.18	174.25	206.9	28.248	165.41	295.4	28.008	-119.77	905.29	256.75	-287.63	23.325	-155.53	-111.8	784.41	222.56	183.44	73.993	1.6088	-122	1455.1	-12.904	-11.749	1017.9	-185.33	79.719	520.46	110.71	-228.79	284.35	-140.66	-198.99	1014.5	-52.592	-166.71	498.11	-150.89	-365.18	88.767	-46.07	-172.4	1073.3	181.12	-133.3	558.29	-161.53	-3.2845	1022	123.78	-197.11	1015.5	16.099	-80.143	917.7	-132.61	-102.78	1017.5	-24.51	-7.5168	1019.9	-30.775	-7.5168	1019.9	-30.775	-74.387	920.52	77.587	-198.05	1015	-18.246	72.425	1022	-32.992	-9.6524	1099.9	-31.791	-5.3271	1021	49.188	-457.11	78.073	-82.504	-136.65	1065.9	257.86	81.072	1631.8	-53.971	64.612	563.58	113.66	-45.833	758.96	249.12	-187.38	1198.4	-13.448	-89.51	1583	58.158	-247.37	28.602	-75.49	68.533	481.23	-13.929	74.126	500.85	48.388	-387.46	89.061	-129.73	-33.302	807.42	202.99	150.57	63.894	77.241	-53.987	1222.7	221.66	83.782	1629.7	20.882	-8.1302	1401.2	140.42	-194.03	484.89	-26.73	-180.37	491.5	-88.808	-112.05	649.41	-177.99	0.49604	738.6	151.66	-92.607	738.12	-195.55	-53.168	675.77	-212.47	-180.25	361.2	-67.683	-230.54	283.39	-68.232	-279.73	205	-71.353	35.984	651	135.26	154.01	392.26	31.515	95.771	678.56	101.32
569	2.845	-193.19	25.788	-97.818	9	2014	4	-90.218	1590.3	-77.435	123.38	827.71	-290.3	-32.558	1062.3	-315.27	310.73	40.042	38.61	-29.554	1400.8	-183.67	267.27	25.13	108.8	354.86	55.52	77.971	-23.117	1201.3	-268.63	155.06	293.31	101.58	194.18	843.25	-269.64	104.07	30.803	12.116	31.887	935.18	-311.16	176.41	206.63	28.368	168.48	295.19	28.192	-113.89	905.2	257.31	-287.44	23.826	-155.22	-105.79	784.31	223.16	184.09	73.69	1.6022	-116.63	1455.4	-11.955	-5.804	1018.3	-184.32	85.384	521.21	111.12	-224.3	284.99	-140.57	-193.6	1014.8	-52.26	-159.82	497.96	-150.29	-363.39	91.351	-46.306	-166.59	1073.2	181.58	-126.39	557.96	-160.89	2.5898	1023.4	125.01	-191.73	1015.9	16.481	-73.97	918.05	-131.29	-97.137	1018.1	-23.771	-1.6071	1020.9	-29.654	-1.6071	1020.9	-29.654	-68.263	921.48	79.054	-192.67	1015.4	-17.889	78.329	1023.2	-31.861	-3.9701	1100.8	-30.893	0.56259	1022.2	50.306	-455.44	82.393	-82.638	-130.88	1065.8	258.35	86.326	1632.2	-52.887	70.351	564.52	114.21	-39.852	758.9	249.81	-182	1198.6	-12.814	-84.198	1583.3	59.292	-247.18	28.496	-75.593	73.325	481.9	-13.328	79.354	501.56	48.894	-385.71	91.981	-129.93	-27.276	807.37	203.7	151.37	63.908	77.323	-48.471	1222.8	222.38	89.07	1630	21.969	-2.8963	1401.4	141.39	-187.42	484.59	-26.568	-173.62	491.27	-88.431	-105.58	649.2	-177.23	6.5334	739.63	151.95	-86.549	738.02	-194.67	-46.801	675.44	-212.12	-174.7	360.98	-67.462	-226.08	283.96	-68.106	-276.41	206.28	-71.388	41.848	651.93	135.52	158.11	392.18	31.767	101.52	679.39	101.18
570	2.85	-193.3	25.665	-97.542	9	2014	4	-84.952	1590.7	-76.309	126.2	827.34	-289.37	-28.587	1062.8	-314.23	311.2	38.652	38.34	-24.019	1401.2	-182.69	267.74	24.411	109.1	355.74	53.528	77.589	-18.377	1201.7	-267.62	158.32	293.25	101.85	197.09	842.56	-268.8	104.27	31.16	12.362	35.204	935.29	-310.14	178.45	206.41	28.49	171.45	295.02	28.386	-107.97	905.2	257.88	-287.19	24.43	-154.93	-99.753	784.3	223.76	184.62	73.452	1.5882	-111.26	1455.8	-11.019	0.13187	1018.9	-183.3	90.943	521.96	111.53	-219.56	285.71	-140.53	-188.24	1015.2	-51.935	-152.6	497.8	-149.72	-361.38	94.114	-46.587	-160.75	1073.2	182.03	-119.17	557.63	-160.24	8.4831	1024.7	126.28	-186.38	1016.5	16.859	-67.824	918.46	-129.98	-91.501	1018.8	-23.025	4.3075	1021.8	-28.513	4.3075	1021.8	-28.513	-62.145	922.44	80.527	-187.31	1015.8	-17.538	84.237	1024.3	-30.717	1.7327	1101.7	-29.953	6.4644	1023.3	51.444	-453.51	87.003	-82.801	-125.08	1065.8	258.83	91.597	1632.6	-51.8	76	565.47	114.77	-33.841	758.94	250.51	-176.65	1199	-12.187	-78.88	1583.6	60.419	-246.98	28.387	-75.691	78.051	482.63	-12.746	84.497	502.29	49.392	-383.74	95.097	-130.17	-21.216	807.41	204.42	152.04	63.964	77.384	-42.943	1222.9	223.08	94.371	1630.4	23.059	2.3303	1401.7	142.34	-180.49	484.25	-26.435	-166.55	491.03	-88.076	-98.886	648.99	-176.46	12.559	740.7	152.28	-80.338	737.94	-193.76	-40.207	675.1	-211.76	-168.83	360.77	-67.292	-221.33	284.6	-68.027	-272.84	207.68	-71.469	47.67	652.89	135.82	162.1	392.12	32.031	107.22	680.2	101.05
571	2.855	-193.46	25.574	-97.232	9	2014	4	-79.675	1591.3	-75.194	128.86	827	-288.46	-24.674	1063.3	-313.16	311.59	37.469	38.071	-18.475	1401.8	-181.7	268.14	23.875	109.39	356.54	51.74	77.245	-13.649	1202.2	-266.59	161.44	293.2	102.11	199.86	841.85	-267.98	104.44	31.458	12.595	38.41	935.45	-309.11	180.38	206.22	28.602	174.3	294.89	28.578	-102.02	905.28	258.44	-286.85	25.147	-154.64	-93.685	784.37	224.37	185.04	73.27	1.5639	-105.89	1456.3	-10.098	6.0565	1019.5	-182.27	96.365	522.69	111.94	-214.55	286.51	-140.53	-182.91	1015.6	-51.611	-145.06	497.64	-149.16	-359.13	97.054	-46.919	-154.88	1073.2	182.47	-111.65	557.3	-159.58	14.406	1026	127.55	-181.05	1017	17.239	-61.705	918.94	-128.69	-85.875	1019.5	-22.273	10.231	1022.8	-27.361	10.231	1022.8	-27.361	-56.028	923.4	81.993	-181.98	1016.3	-17.186	90.154	1025.5	-29.572	7.4616	1102.7	-28.979	12.386	1024.5	52.592	-451.32	91.899	-83.001	-119.26	1065.9	259.3	96.882	1633.1	-50.711	81.526	566.41	115.33	-27.798	759.06	251.23	-171.31	1199.4	-11.562	-73.561	1584	61.536	-246.81	28.277	-75.782	82.691	483.38	-12.193	89.528	503.03	49.874	-381.54	98.407	-130.46	-15.122	807.53	205.15	152.58	64.056	77.421	-37.406	1223.1	223.78	99.683	1630.9	24.148	7.5473	1402.2	143.28	-173.2	483.86	-26.323	-159.13	490.75	-87.743	-91.956	648.79	-175.67	18.538	741.78	152.64	-73.975	737.88	-192.83	-33.377	674.75	-211.39	-162.65	360.58	-67.173	-216.31	285.32	-67.996	-269.01	209.18	-71.601	53.418	653.83	136.15	165.97	392.09	32.294	112.85	681	100.96
572	2.86	-193.67	25.524	-96.886	9	2014	4	-74.391	1591.8	-74.091	131.38	826.69	-287.58	-20.818	1063.9	-312.08	311.91	36.47	37.8	-12.934	1402.4	-180.71	268.5	23.494	109.66	357.29	50.129	76.933	-8.935	1202.7	-265.54	164.41	293.17	102.35	202.49	841.13	-267.2	104.58	31.701	12.812	41.509	935.68	-308.07	182.2	206.06	28.697	177.03	294.77	28.757	-96.045	905.44	259.01	-286.4	25.985	-154.37	-87.588	784.53	224.97	185.35	73.13	1.5274	-100.54	1456.9	-9.1907	11.964	1020.1	-181.25	101.62	523.38	112.34	-209.27	287.39	-140.59	-177.61	1016	-51.28	-137.18	497.47	-148.64	-356.64	100.16	-47.308	-148.99	1073.4	182.91	-103.83	556.96	-158.92	20.362	1027.3	128.84	-175.75	1017.6	17.628	-55.618	919.46	-127.41	-80.258	1020.3	-21.516	16.163	1023.7	-26.207	16.163	1023.7	-26.207	-49.908	924.35	83.448	-176.68	1016.8	-16.826	96.08	1026.6	-28.438	13.216	1103.7	-27.979	18.328	1025.6	53.742	-448.82	97.072	-83.247	-113.43	1066	259.77	102.18	1633.7	-49.623	86.901	567.31	115.89	-21.723	759.27	251.96	-165.98	1199.9	-10.934	-68.244	1584.5	62.64	-246.64	28.17	-75.861	87.225	484.16	-11.673	94.423	503.77	50.336	-379.09	101.91	-130.8	-8.9951	807.73	205.9	153.02	64.179	77.432	-31.863	1223.4	224.46	105	1631.3	25.236	12.752	1402.6	144.2	-165.54	483.42	-26.225	-151.36	490.45	-87.431	-84.797	648.61	-174.87	24.438	742.85	153.04	-67.463	737.84	-191.89	-26.306	674.38	-210.99	-156.15	360.41	-67.105	-210.99	286.1	-68.014	-264.89	210.8	-71.783	59.064	654.76	136.52	169.71	392.07	32.545	118.4	681.74	100.93
573	2.865	-193.94	25.526	-96.502	9	2014	4	-69.104	1592.5	-73.004	133.75	826.4	-286.72	-17.018	1064.5	-310.98	312.19	35.631	37.524	-7.4027	1403.1	-179.72	268.83	23.243	109.91	357.98	48.668	76.649	-4.236	1203.4	-264.47	167.25	293.14	102.56	204.98	840.4	-266.45	104.69	31.898	13.009	44.506	935.96	-307.04	183.92	205.93	28.769	179.65	294.67	28.916	-90.043	905.68	259.58	-285.83	26.951	-154.11	-81.459	784.77	225.58	185.59	73.024	1.4773	-95.201	1457.5	-8.2983	17.845	1020.9	-180.23	106.69	524.02	112.74	-203.71	288.36	-140.7	-172.35	1016.5	-50.935	-128.98	497.3	-148.14	-353.89	103.43	-47.758	-143.07	1073.6	183.34	-95.714	556.62	-158.25	26.348	1028.6	130.12	-170.46	1018.3	18.032	-49.571	920.04	-126.15	-74.654	1021.1	-20.755	22.096	1024.7	-25.058	22.096	1024.7	-25.058	-43.789	925.29	84.886	-171.4	1017.4	-16.451	102.01	1027.8	-27.323	18.989	1104.6	-26.962	24.287	1026.7	54.888	-446.01	102.51	-83.548	-107.59	1066.2	260.24	107.48	1634.2	-48.539	92.1	568.16	116.43	-15.614	759.57	252.69	-160.68	1200.4	-10.301	-62.933	1585.1	63.729	-246.49	28.072	-75.925	91.635	484.93	-11.192	99.163	504.48	50.772	-376.38	105.59	-131.19	-2.8361	808.02	206.65	153.36	64.326	77.417	-26.317	1223.8	225.13	110.32	1631.8	26.319	17.943	1403.2	145.1	-157.52	482.92	-26.131	-143.25	490.11	-87.136	-77.413	648.43	-174.07	30.226	743.88	153.47	-60.803	737.81	-190.92	-18.996	674.01	-210.55	-149.34	360.25	-67.086	-205.37	286.95	-68.081	-260.5	212.53	-72.018	64.577	655.63	136.92	173.32	392.06	32.775	123.84	682.42	100.96
574	2.87	-194.26	25.593	-96.079	9	2014	4	-63.819	1593.2	-71.934	135.99	826.14	-285.9	-13.273	1065.3	-309.86	312.42	34.928	37.24	-1.892	1403.8	-178.72	269.12	23.095	110.14	358.64	47.332	76.386	0.44487	1204	-263.39	169.97	293.1	102.74	207.34	839.65	-265.73	104.79	32.053	13.186	47.404	936.29	-306.01	185.54	205.8	28.814	182.16	294.58	29.05	-84.017	905.99	260.15	-285.12	28.051	-153.86	-75.298	785.09	226.19	185.75	72.94	1.4127	-89.884	1458.2	-7.4201	23.679	1021.6	-179.23	111.55	524.61	113.11	-197.86	289.41	-140.86	-167.12	1017.1	-50.568	-120.46	497.11	-147.68	-350.86	106.85	-48.272	-137.15	1073.9	183.77	-87.321	556.28	-157.6	32.35	1029.8	131.39	-165.19	1018.9	18.458	-43.579	920.65	-124.92	-69.07	1021.8	-19.987	28.015	1025.7	-23.918	28.015	1025.7	-23.918	-37.684	926.22	86.304	-166.15	1018	-16.055	107.92	1028.9	-26.233	24.763	1105.6	-25.934	30.246	1027.8	56.023	-442.87	108.19	-83.909	-101.75	1066.5	260.72	112.79	1634.8	-47.463	97.103	568.92	116.95	-9.4698	759.95	253.44	-155.38	1200.9	-9.659	-57.632	1585.6	64.8	-246.36	27.993	-75.97	95.909	485.7	-10.752	103.73	505.15	51.18	-373.38	109.44	-131.65	3.3542	808.39	207.4	153.64	64.488	77.377	-20.772	1224.2	225.8	115.64	1632.4	27.394	23.119	1403.8	145.98	-149.11	482.37	-26.029	-134.79	489.74	-86.856	-69.815	648.26	-173.27	35.875	744.85	153.93	-54.002	737.8	-189.95	-11.45	673.63	-210.04	-142.21	360.12	-67.113	-199.46	287.85	-68.198	-255.8	214.36	-72.305	69.933	656.44	137.35	176.78	392.04	32.979	129.14	683.03	101.07
